<svg width="49" height="41" viewBox="0 0 49 41" fill="none" xmlns="http://www.w3.org/2000/svg">
<g clip-path="url(#clip0_475:76265)">
<path d="M47.2671 17.8239C47.266 17.823 47.2649 17.8221 47.2638 17.8211L27.6304 1.68373C26.7935 0.995555 25.6809 0.616455 24.4974 0.616455C23.3139 0.616455 22.2012 0.995253 21.364 1.68343L1.74089 17.8127C1.73428 17.8181 1.72767 17.8239 1.72107 17.8293C0.00254136 19.25 0.00547901 21.5551 1.72951 22.9722C2.51717 23.6199 3.55746 23.9951 4.66973 24.0343C4.7149 24.038 4.76043 24.0398 4.80633 24.0398H5.58885V35.9159C5.58885 38.266 7.9151 40.1781 10.7749 40.1781H18.4561C19.2346 40.1781 19.8662 39.6593 19.8662 39.0191V29.7082C19.8662 28.6358 20.9274 27.7635 22.2321 27.7635H26.7627C28.0674 27.7635 29.1286 28.6358 29.1286 29.7082V39.0191C29.1286 39.6593 29.7598 40.1781 30.5387 40.1781H38.2199C41.0797 40.1781 43.4059 38.266 43.4059 35.9159V24.0398H44.1315C45.3147 24.0398 46.4273 23.661 47.2649 22.9728C48.9908 21.5533 48.9915 19.2443 47.2671 17.8239Z" fill="#484F8F"/>
</g>
<defs>
<clipPath id="clip0_475:76265">
<rect width="48.1304" height="39.5616" fill="white" transform="translate(0.434814 0.616455)"/>
</clipPath>
</defs>
</svg>
