<svg width="49" height="49" viewBox="0 0 49 49" fill="none" xmlns="http://www.w3.org/2000/svg">
<path d="M39.8125 49H9.1875C4.11294 49 0 44.8871 0 39.8125V9.1875C0 4.11294 4.11294 0 9.1875 0H39.8125C44.8871 0 49 4.11294 49 9.1875V39.8125C49 44.8871 44.8871 49 39.8125 49Z" fill="#FFECE9"/>
<g clip-path="url(#clip0_378:72868)">
<path d="M14.675 18.1719V13.1094C14.675 12.7737 14.8133 12.4518 15.0595 12.2144C15.3056 11.9771 15.6395 11.8438 15.9875 11.8438H28.2375C28.5856 11.8438 28.9195 11.9771 29.1656 12.2144C29.4118 12.4518 29.55 12.7737 29.55 13.1094V35.8906C29.55 36.2263 29.4118 36.5482 29.1656 36.7856C28.9195 37.0229 28.5856 37.1562 28.2375 37.1562H15.9875C15.6395 37.1562 15.3056 37.0229 15.0595 36.7856C14.8133 36.5482 14.675 36.2263 14.675 35.8906V21.5469" fill="white"/>
<path d="M14.9375 30.4062H29.375V37.1562H14.9375V30.4062Z" fill="#00E1F0"/>
<path d="M14.9375 12.2656H29.375V15.2188H14.9375V12.2656Z" fill="#00E1F0"/>
<path d="M35.2812 38C35.7645 38 36.1562 37.6222 36.1562 37.1562C36.1562 36.6903 35.7645 36.3125 35.2812 36.3125C34.798 36.3125 34.4062 36.6903 34.4062 37.1562C34.4062 37.6222 34.798 38 35.2812 38Z" fill="#00E1F0"/>
<path d="M31.7812 36.3125H30.425C30.453 36.1735 30.4676 36.0322 30.4688 35.8906V24.3819C30.601 24.3083 30.711 24.2025 30.7877 24.0752C30.8645 23.9479 30.9053 23.8035 30.9062 23.6562V22.8125C30.9053 22.6653 30.8645 22.5208 30.7877 22.3935C30.711 22.2662 30.601 22.1605 30.4688 22.0869V20.1631C30.601 20.0895 30.711 19.9838 30.7877 19.8565C30.8645 19.7292 30.9053 19.5847 30.9062 19.4375V15.6406C30.9053 15.4934 30.8645 15.3489 30.7877 15.2216C30.711 15.0943 30.601 14.9886 30.4688 14.915V13.1094C30.4688 12.8324 30.4122 12.5581 30.3022 12.3022C30.1923 12.0462 30.0312 11.8137 29.828 11.6178C29.6249 11.4219 29.3838 11.2666 29.1184 11.1606C28.853 11.0546 28.5685 11 28.2812 11H16.0312C15.4511 11 14.8947 11.2222 14.4845 11.6178C14.0742 12.0134 13.8438 12.5499 13.8438 13.1094V18.1719C13.8438 18.3957 13.9359 18.6103 14.1 18.7685C14.2641 18.9267 14.4867 19.0156 14.7188 19.0156C14.9508 19.0156 15.1734 18.9267 15.3375 18.7685C15.5016 18.6103 15.5938 18.3957 15.5938 18.1719V16.0625H28.7188V29.5625H15.5938V21.5469C15.5938 21.3231 15.5016 21.1085 15.3375 20.9503C15.1734 20.792 14.9508 20.7031 14.7188 20.7031C14.4867 20.7031 14.2641 20.792 14.1 20.9503C13.9359 21.1085 13.8438 21.3231 13.8438 21.5469V35.8906C13.8438 36.4501 14.0742 36.9866 14.4845 37.3822C14.8947 37.7778 15.4511 38 16.0312 38H31.7812C32.0133 38 32.2359 37.9111 32.4 37.7529C32.5641 37.5946 32.6562 37.38 32.6562 37.1562C32.6562 36.9325 32.5641 36.7179 32.4 36.5596C32.2359 36.4014 32.0133 36.3125 31.7812 36.3125ZM15.5938 14.375V13.1094C15.5938 12.9975 15.6398 12.8902 15.7219 12.8111C15.8039 12.7319 15.9152 12.6875 16.0312 12.6875H28.2812C28.3973 12.6875 28.5086 12.7319 28.5906 12.8111C28.6727 12.8902 28.7188 12.9975 28.7188 13.1094V14.375H15.5938ZM16.0312 36.3125C15.9152 36.3125 15.8039 36.2681 15.7219 36.1889C15.6398 36.1098 15.5938 36.0025 15.5938 35.8906V31.25H28.7188V35.8906C28.7188 36.0025 28.6727 36.1098 28.5906 36.1889C28.5086 36.2681 28.3973 36.3125 28.2812 36.3125H16.0312Z" fill="#0065FF"/>
<path d="M24.3438 32.9375H19.9688C19.7367 32.9375 19.5141 33.0264 19.35 33.1846C19.1859 33.3429 19.0938 33.5575 19.0938 33.7812C19.0938 34.005 19.1859 34.2196 19.35 34.3779C19.5141 34.5361 19.7367 34.625 19.9688 34.625H24.3438C24.5758 34.625 24.7984 34.5361 24.9625 34.3779C25.1266 34.2196 25.2188 34.005 25.2188 33.7812C25.2188 33.5575 25.1266 33.3429 24.9625 33.1846C24.7984 33.0264 24.5758 32.9375 24.3438 32.9375Z" fill="#F7F9FA"/>
<path d="M22.1562 19.8594C21.9242 19.8594 21.7016 19.9483 21.5375 20.1065C21.3734 20.2647 21.2812 20.4793 21.2812 20.7031V21.9688H19.9688C19.7367 21.9688 19.5141 22.0576 19.35 22.2159C19.1859 22.3741 19.0938 22.5887 19.0938 22.8125C19.0938 23.0363 19.1859 23.2509 19.35 23.4091C19.5141 23.5674 19.7367 23.6562 19.9688 23.6562H21.2812V24.9219C21.2812 25.1457 21.3734 25.3603 21.5375 25.5185C21.7016 25.6767 21.9242 25.7656 22.1562 25.7656C22.3883 25.7656 22.6109 25.6767 22.775 25.5185C22.9391 25.3603 23.0312 25.1457 23.0312 24.9219V23.6562H24.3438C24.5758 23.6562 24.7984 23.5674 24.9625 23.4091C25.1266 23.2509 25.2188 23.0363 25.2188 22.8125C25.2188 22.5887 25.1266 22.3741 24.9625 22.2159C24.7984 22.0576 24.5758 21.9688 24.3438 21.9688H23.0312V20.7031C23.0312 20.4793 22.9391 20.2647 22.775 20.1065C22.6109 19.9483 22.3883 19.8594 22.1562 19.8594Z" fill="#00E1F0"/>
</g>
<defs>
<clipPath id="clip0_378:72868">
<rect width="28" height="27" fill="white" transform="translate(11 11)"/>
</clipPath>
</defs>
</svg>
