<svg width="49" height="49" viewBox="0 0 49 49" fill="none" xmlns="http://www.w3.org/2000/svg">
<path d="M39.8125 49H9.1875C4.11294 49 0 44.8871 0 39.8125V9.1875C0 4.11294 4.11294 0 9.1875 0H39.8125C44.8871 0 49 4.11294 49 9.1875V39.8125C49 44.8871 44.8871 49 39.8125 49Z" fill="#F2F6FE"/>
<path d="M22.4591 25.5198C23.5864 25.5198 24.5003 24.606 24.5003 23.4787C24.5003 22.3514 23.5864 21.4375 22.4591 21.4375C21.3318 21.4375 20.418 22.3514 20.418 23.4787C20.418 24.606 21.3318 25.5198 22.4591 25.5198Z" fill="#00E1F0"/>
<path d="M26.5412 26.5411C25.4157 26.5411 24.5 27.4568 24.5 28.5822C24.5 29.1457 24.9563 29.6036 25.5213 29.6036C26.0864 29.6036 26.5427 29.1457 26.5427 28.5822C27.1062 28.5838 27.5625 28.1259 27.5625 27.5624C27.5625 26.9989 27.1062 26.5411 26.5412 26.5411V26.5411Z" fill="#00E1F0"/>
<path d="M35.7287 28.5838C35.5373 28.5838 35.3566 28.541 35.1866 28.4767C35.5219 28.2898 35.8297 28.0494 36.0778 27.7401L36.5249 27.1812C36.8771 26.7417 36.8067 26.0986 36.3657 25.7464C35.9247 25.3942 35.2831 25.4662 34.9309 25.9057L34.4822 26.4661C34.2969 26.6989 34.0351 26.8642 33.7212 26.8244C33.4226 26.8198 33.15 26.6805 32.9709 26.4416C32.8667 26.3023 32.7289 26.2104 32.5819 26.1415C32.6309 25.7709 32.6646 25.3958 32.6646 25.0114C32.6646 23.8569 32.4334 22.7559 32.023 21.7483C32.7228 21.4222 33.2833 20.8817 33.6339 20.1972L33.7089 20.1635C33.9861 20.0395 34.2234 20.1176 34.3398 20.1742C34.4562 20.2309 34.6644 20.3702 34.7379 20.6642C34.8543 21.1282 35.2708 21.4375 35.7287 21.4375C35.8098 21.4375 35.894 21.4283 35.9767 21.4069C36.5234 21.2706 36.8572 20.7163 36.7194 20.1696C36.5203 19.3688 35.9798 18.7012 35.2371 18.3398C34.839 18.1453 34.4087 18.058 33.9769 18.0642C33.9065 17.6339 33.7717 17.2143 33.542 16.83C33.2526 16.3461 32.6263 16.1899 32.1409 16.4793C31.6571 16.7687 31.5009 17.3965 31.7903 17.8789C32.0123 18.2479 32.0552 18.6904 31.9113 19.0962C31.7673 19.5005 31.4534 19.8174 31.0614 19.9598L31.0507 19.9629L31.0691 20.0134C29.6741 18.0427 27.4829 16.6753 24.9655 16.3905C24.9242 15.9878 24.8476 15.5927 24.7067 15.2252L24.8124 15.0981C25.2396 14.5836 25.8705 14.2896 26.5396 14.2896C27.1062 14.2912 27.5625 13.8348 27.5625 13.2713C27.5625 12.7078 27.1062 12.25 26.5412 12.25C25.3988 12.25 24.3331 12.7201 23.5323 13.5179C22.8723 12.9054 22.0423 12.472 21.1022 12.3373L20.5601 12.2607C20.0012 12.1857 19.4852 12.5685 19.404 13.1274C19.3244 13.6848 19.7118 14.2023 20.2707 14.282L20.8128 14.3585C21.8938 14.5132 22.7391 15.3584 22.9274 16.4058C21.2936 16.6064 19.7991 17.2603 18.5741 18.2418C18.0841 16.7856 16.5191 15.9495 15.0307 16.3737C14.4887 16.5283 14.1748 17.0933 14.3294 17.6354C14.4856 18.1775 15.0507 18.4898 15.5927 18.3367C16.0429 18.2081 16.5191 18.4684 16.6539 18.9171L16.8851 19.6903C16.9081 19.7684 16.9494 19.8358 16.9892 19.9047C16.1516 21.0486 15.5897 22.4007 15.3952 23.8722C14.7536 23.7053 14.2912 23.1311 14.2912 22.4604C14.2912 21.8938 13.8348 21.4375 13.2713 21.4375C12.7078 21.4375 12.25 21.8938 12.25 22.4588C12.25 24.1264 13.4367 25.5749 15.0721 25.9011L15.3676 25.9608C15.5897 27.9882 16.5115 29.8073 17.8865 31.1701L17.6614 31.922C17.5083 32.4349 17.0122 32.755 16.4793 32.6784C15.9204 32.5988 15.4044 32.9862 15.3232 33.5451C15.2436 34.1025 15.631 34.62 16.1899 34.6997C16.343 34.7211 16.4931 34.7318 16.6432 34.7318C17.1699 34.7318 17.6737 34.5971 18.1177 34.3567C18.1177 34.3628 18.1193 34.3735 18.1193 34.3781C18.1147 34.496 18.0718 34.7165 17.836 34.8635C17.3582 35.1621 17.2128 35.793 17.5114 36.2707C17.7028 36.58 18.0366 36.75 18.3765 36.75C18.5603 36.75 18.7486 36.6995 18.9171 36.5953C19.6643 36.1283 20.1267 35.3259 20.1574 34.4485C20.1803 33.7947 19.9583 33.1684 19.551 32.6769C19.5709 32.6202 19.5985 32.5682 19.6168 32.51L19.6214 32.4962C20.9046 33.248 22.3961 33.6875 23.9901 33.6875C24.4923 33.6875 24.9823 33.6354 25.4616 33.5528L25.676 33.98C25.7801 34.1882 25.9088 34.3766 26.0466 34.5542C25.8919 34.6491 25.7127 34.7088 25.5213 34.7088C24.9578 34.7088 24.5 35.1667 24.5 35.7302C24.5 36.2937 24.9563 36.75 25.5213 36.75C26.3942 36.75 27.2088 36.3641 27.7738 35.7409C28.0893 35.8343 28.4169 35.8864 28.7492 35.8864C29.1535 35.8864 29.5623 35.8144 29.962 35.6659C30.4887 35.4668 30.7567 34.8788 30.5592 34.3521C30.3616 33.8238 29.7736 33.5589 29.2438 33.7549C28.5747 34.0075 27.8213 33.7135 27.4997 33.0689L27.4477 32.9663C29.5102 32.0659 31.1563 30.3877 32.0138 28.3021C32.1685 28.4123 32.3293 28.5103 32.5023 28.5884C33.098 29.815 34.3505 30.625 35.7287 30.625C36.2937 30.625 36.75 30.1687 36.75 29.6037C36.75 29.0386 36.2937 28.5838 35.7287 28.5838V28.5838ZM23.9901 31.6463C20.3319 31.6463 17.3552 28.6696 17.3552 25.0114C17.3552 21.3533 20.3304 18.375 23.9901 18.375C27.6498 18.375 30.625 21.3518 30.625 25.0099C30.625 28.6681 27.6482 31.6463 23.9901 31.6463V31.6463Z" fill="#0065FF"/>
</svg>
