<svg width="49" height="49" viewBox="0 0 49 49" fill="none" xmlns="http://www.w3.org/2000/svg">
<rect width="49" height="49" rx="12" fill="#FFFADD"/>
<path d="M26.4911 13C21.2495 13 16.9853 16.9244 16.9853 21.7529C16.9853 22.2287 16.8392 22.6931 16.5626 23.0956L14.2388 26.4953C14.0817 26.7238 14 26.9854 14 27.2499C14 28.0305 14.6929 28.6659 15.5445 28.6659H16.9853V30.9156C16.9853 32.2021 18.1244 33.2486 19.5259 33.2486C19.8087 33.2486 20.0758 33.2084 20.2707 33.1422L21.9629 32.6693V35.0412C21.9629 35.5702 22.4327 36 23.0109 36H31.9667C32.5449 36 33.0147 35.5702 33.0147 35.0412V30.434C33.0147 29.1187 33.4499 27.8537 34.2732 26.7727C35.4029 25.2921 36 23.5556 36 21.7486C35.9969 16.9244 31.7326 13 26.4911 13V13ZM23.6315 30.6051C23.3644 30.4239 23.0187 30.3722 22.7029 30.4584L19.6563 31.3109C19.6406 31.3152 19.5401 31.3281 19.5244 31.3324C19.2745 31.3324 19.0797 31.1499 19.0797 30.9156V28.9433L23.1727 26.8058C24.2694 26.2308 25.5389 26.2897 26.5665 26.9653C27.5956 27.6424 28.0623 28.7248 27.8156 29.8604L26.8949 34.0824H24.0557V31.3741C24.0557 31.0708 23.8986 30.7847 23.6315 30.6051V30.6051ZM32.5528 25.6773C31.4828 27.0818 30.9172 28.7262 30.9172 30.4354V34.0838H29.0301L29.8692 30.2356C30.2761 28.3697 29.4795 26.5211 27.7889 25.4099C26.0998 24.3002 23.9316 24.1996 22.1326 25.1426L18.657 26.9581C18.4811 26.8345 18.2721 26.7497 18.0333 26.7497H16.5359L18.3397 24.1119C18.8252 23.4032 19.0813 22.5867 19.0813 21.7486C19.0813 17.9809 22.4059 14.9147 26.4911 14.9147C30.5778 14.9147 33.9024 17.9795 33.9024 21.7486C33.9024 23.1617 33.4358 24.5201 32.5528 25.6773V25.6773Z" fill="#0065FF"/>
</svg>
