<svg width="49" height="49" viewBox="0 0 49 49" fill="none" xmlns="http://www.w3.org/2000/svg">
<rect width="49" height="49" rx="12" fill="#FFECE9"/>
<g clip-path="url(#clip0_2116_93041)">
<path d="M23.2812 16.0938H26.0312V18.8438H23.2812V16.0938Z" fill="#E3FCFD"/>
<path d="M14.6875 25.7188V23.3125C14.6875 22.1273 15.1583 20.9907 15.9964 20.1526C16.8344 19.3146 17.9711 18.8438 19.1562 18.8438H32.2188C33.0393 18.8438 33.8262 19.1697 34.4064 19.7499C34.9866 20.3301 35.3125 21.117 35.3125 21.9375V29.1562C35.3125 29.4298 35.2039 29.6921 35.0105 29.8855C34.8171 30.0789 34.5548 30.1875 34.2812 30.1875H15.7188C15.4452 30.1875 15.1829 30.0789 14.9895 29.8855C14.7961 29.6921 14.6875 29.4298 14.6875 29.1562V28.4688" fill="#E3FCFD"/>
<path d="M18.4928 18.5H21.2188V23.6562H15.0312V21.9616C15.0312 21.0435 15.3959 20.163 16.0451 19.5139C16.6943 18.8647 17.5747 18.5 18.4928 18.5V18.5Z" fill="#00E1F0"/>
<path d="M20.5312 32.9375C21.6703 32.9375 22.5938 32.0141 22.5938 30.875C22.5938 29.7359 21.6703 28.8125 20.5312 28.8125C19.3922 28.8125 18.4688 29.7359 18.4688 30.875C18.4688 32.0141 19.3922 32.9375 20.5312 32.9375Z" fill="#E3FCFD"/>
<path d="M30.1562 32.9375C31.2953 32.9375 32.2188 32.0141 32.2188 30.875C32.2188 29.7359 31.2953 28.8125 30.1562 28.8125C29.0172 28.8125 28.0938 29.7359 28.0938 30.875C28.0938 32.0141 29.0172 32.9375 30.1562 32.9375Z" fill="#E3FCFD"/>
<path d="M32.2188 17.8951H26.7188V17.2076C26.7188 16.6605 26.5015 16.1359 26.1147 15.7491C25.7279 15.3623 25.2033 15.1451 24.6562 15.1451C24.1092 15.1451 23.5846 15.3623 23.1978 15.7491C22.811 16.1359 22.5938 16.6605 22.5938 17.2076V17.8951H19.1562C17.7887 17.8951 16.4772 18.4383 15.5102 19.4053C14.5432 20.3723 14 21.6838 14 23.0513L14 25.4576C14 25.6399 14.0724 25.8148 14.2014 25.9437C14.3303 26.0726 14.5052 26.1451 14.6875 26.1451C14.8698 26.1451 15.0447 26.0726 15.1736 25.9437C15.3026 25.8148 15.375 25.6399 15.375 25.4576V24.4263H21.2188C21.4011 24.4263 21.576 24.3539 21.7049 24.2249C21.8338 24.096 21.9062 23.9211 21.9062 23.7388V19.2701H32.2188C32.8569 19.2701 33.469 19.5236 33.9202 19.9748C34.3715 20.4261 34.625 21.0381 34.625 21.6763V28.8951C34.625 28.9862 34.5888 29.0737 34.5243 29.1381C34.4599 29.2026 34.3724 29.2388 34.2812 29.2388H32.3597C32.1536 28.7323 31.8012 28.2988 31.3474 27.9935C30.8937 27.6883 30.3593 27.5253 29.8125 27.5253C29.2657 27.5253 28.7313 27.6883 28.2776 27.9935C27.8238 28.2988 27.4714 28.7323 27.2653 29.2388H22.7347C22.5286 28.7323 22.1762 28.2988 21.7224 27.9935C21.2687 27.6883 20.7343 27.5253 20.1875 27.5253C19.6407 27.5253 19.1063 27.6883 18.6526 27.9935C18.1988 28.2988 17.8464 28.7323 17.6403 29.2388H15.7188C15.6276 29.2388 15.5401 29.2026 15.4757 29.1381C15.4112 29.0737 15.375 28.9862 15.375 28.8951V28.2076C15.375 28.0252 15.3026 27.8503 15.1736 27.7214C15.0447 27.5925 14.8698 27.5201 14.6875 27.5201C14.5052 27.5201 14.3303 27.5925 14.2014 27.7214C14.0724 27.8503 14 28.0252 14 28.2076V28.8951C14 29.3509 14.1811 29.7881 14.5034 30.1104C14.8257 30.4327 15.2629 30.6138 15.7188 30.6138H17.4616C17.5495 31.2744 17.8744 31.8806 18.3758 32.3197C18.8772 32.7588 19.521 33.0008 20.1875 33.0008C20.854 33.0008 21.4978 32.7588 21.9992 32.3197C22.5006 31.8806 22.8255 31.2744 22.9134 30.6138H27.0866C27.1745 31.2744 27.4994 31.8806 28.0008 32.3197C28.5022 32.7588 29.146 33.0008 29.8125 33.0008C30.479 33.0008 31.1228 32.7588 31.6242 32.3197C32.1256 31.8806 32.4505 31.2744 32.5384 30.6138H34.2812C34.7371 30.6138 35.1743 30.4327 35.4966 30.1104C35.8189 29.7881 36 29.3509 36 28.8951V21.6763C36 20.6735 35.6016 19.7117 34.8925 19.0026C34.1834 18.2934 33.2216 17.8951 32.2188 17.8951V17.8951ZM20.5312 23.0513H15.375C15.375 22.0485 15.7734 21.0867 16.4825 20.3776C17.1916 19.6684 18.1534 19.2701 19.1562 19.2701H20.5312V23.0513ZM25.3438 17.8951H23.9688V17.2076C23.9688 17.0252 24.0412 16.8503 24.1701 16.7214C24.299 16.5925 24.4739 16.5201 24.6562 16.5201C24.8386 16.5201 25.0135 16.5925 25.1424 16.7214C25.2713 16.8503 25.3438 17.0252 25.3438 17.2076V17.8951ZM20.1875 31.6451C19.9156 31.6451 19.6497 31.5644 19.4236 31.4133C19.1975 31.2622 19.0212 31.0475 18.9172 30.7962C18.8131 30.545 18.7859 30.2685 18.8389 30.0018C18.892 29.7351 19.0229 29.4901 19.2152 29.2978C19.4075 29.1055 19.6525 28.9745 19.9193 28.9215C20.186 28.8684 20.4624 28.8956 20.7137 28.9997C20.9649 29.1038 21.1797 29.28 21.3308 29.5061C21.4819 29.7323 21.5625 29.9981 21.5625 30.2701C21.5625 30.6347 21.4176 30.9845 21.1598 31.2423C20.9019 31.5002 20.5522 31.6451 20.1875 31.6451ZM29.8125 31.6451C29.5406 31.6451 29.2747 31.5644 29.0486 31.4133C28.8225 31.2622 28.6462 31.0475 28.5422 30.7962C28.4381 30.545 28.4109 30.2685 28.4639 30.0018C28.517 29.7351 28.6479 29.4901 28.8402 29.2978C29.0325 29.1055 29.2775 28.9745 29.5443 28.9215C29.811 28.8684 30.0874 28.8956 30.3387 28.9997C30.5899 29.1038 30.8047 29.28 30.9558 29.5061C31.1069 29.7323 31.1875 29.9981 31.1875 30.2701C31.1875 30.6347 31.0426 30.9845 30.7848 31.2423C30.5269 31.5002 30.1772 31.6451 29.8125 31.6451Z" fill="#003CBF"/>
<path d="M26.0312 21.3326C25.8489 21.3326 25.674 21.405 25.5451 21.5339C25.4162 21.6628 25.3438 21.8377 25.3438 22.0201V23.0513H24.3125C24.2222 23.0513 24.1328 23.0691 24.0494 23.1036C23.966 23.1382 23.8902 23.1888 23.8264 23.2527C23.7625 23.3165 23.7119 23.3923 23.6773 23.4757C23.6428 23.5591 23.625 23.6485 23.625 23.7388C23.625 23.8291 23.6428 23.9185 23.6773 24.0019C23.7119 24.0853 23.7625 24.1611 23.8264 24.2249C23.8902 24.2888 23.966 24.3394 24.0494 24.374C24.1328 24.4085 24.2222 24.4263 24.3125 24.4263H25.3438V25.4576C25.3438 25.6399 25.4162 25.8148 25.5451 25.9437C25.674 26.0726 25.8489 26.1451 26.0312 26.1451C26.2136 26.1451 26.3885 26.0726 26.5174 25.9437C26.6463 25.8148 26.7188 25.6399 26.7188 25.4576V24.4263H27.75C27.9323 24.4263 28.1072 24.3539 28.2361 24.2249C28.3651 24.096 28.4375 23.9211 28.4375 23.7388C28.4375 23.5565 28.3651 23.3816 28.2361 23.2527C28.1072 23.1237 27.9323 23.0513 27.75 23.0513H26.7188V22.0201C26.7188 21.8377 26.6463 21.6628 26.5174 21.5339C26.3885 21.405 26.2136 21.3326 26.0312 21.3326V21.3326Z" fill="#00E1F0"/>
<path d="M34.625 34.3951C35.0047 34.3951 35.3125 34.0872 35.3125 33.7076C35.3125 33.3279 35.0047 33.0201 34.625 33.0201C34.2453 33.0201 33.9375 33.3279 33.9375 33.7076C33.9375 34.0872 34.2453 34.3951 34.625 34.3951Z" fill="#00E1F0"/>
<path d="M18.4688 33.0201C18.2864 33.0201 18.1115 33.0925 17.9826 33.2214C17.8537 33.3504 17.7812 33.5252 17.7812 33.7076C17.7812 33.8899 17.8537 34.0648 17.9826 34.1937C18.1115 34.3226 18.2864 34.3951 18.4688 34.3951H31.875C32.0573 34.3951 32.2322 34.3226 32.3611 34.1937C32.4901 34.0648 32.5625 33.8899 32.5625 33.7076C32.5625 33.5252 32.4901 33.3504 32.3611 33.2214C32.2322 33.0925 32.0573 33.0201 31.875 33.0201H18.4688Z" fill="#003CBF"/>
<path d="M21.4971 15.0212C21.5609 15.085 21.6368 15.1357 21.7202 15.1703C21.8037 15.2048 21.8931 15.2226 21.9835 15.2226C22.0738 15.2226 22.1632 15.2048 22.2467 15.1703C22.3302 15.1357 22.406 15.085 22.4699 15.0212C22.5337 14.9573 22.5844 14.8815 22.619 14.798C22.6535 14.7145 22.6713 14.6251 22.6713 14.5348C22.6713 14.4444 22.6535 14.355 22.619 14.2715C22.5844 14.1881 22.5337 14.1122 22.4699 14.0484L22.2258 13.8043C22.0968 13.6753 21.9218 13.6028 21.7394 13.6028C21.557 13.6028 21.382 13.6753 21.253 13.8043C21.124 13.9333 21.0515 14.1083 21.0515 14.2907C21.0515 14.4731 21.124 14.6481 21.253 14.7771L21.4971 15.0212Z" fill="#003CBF"/>
<path d="M27.8154 15.0212L28.0595 14.7771C28.1233 14.7132 28.174 14.6374 28.2086 14.5539C28.2431 14.4705 28.2609 14.381 28.2609 14.2907C28.2609 14.2004 28.2431 14.1109 28.2086 14.0275C28.174 13.944 28.1233 13.8682 28.0595 13.8043C27.9956 13.7404 27.9198 13.6897 27.8363 13.6552C27.7528 13.6206 27.6634 13.6028 27.5731 13.6028C27.4827 13.6028 27.3933 13.6206 27.3098 13.6552C27.2264 13.6897 27.1505 13.7404 27.0867 13.8043L26.8426 14.0484C26.7787 14.1122 26.728 14.1881 26.6935 14.2715C26.6589 14.355 26.6411 14.4444 26.6411 14.5348C26.6411 14.6251 26.6589 14.7145 26.6935 14.798C26.728 14.8815 26.7787 14.9573 26.8426 15.0212C26.9065 15.085 26.9823 15.1357 27.0658 15.1703C27.1492 15.2048 27.2387 15.2226 27.329 15.2226C27.4193 15.2226 27.5088 15.2048 27.5922 15.1703C27.6757 15.1357 27.7515 15.085 27.8154 15.0212V15.0212Z" fill="#003CBF"/>
</g>
<defs>
<clipPath id="clip0_2116_93041">
<rect width="22" height="22" fill="white" transform="translate(14 13)"/>
</clipPath>
</defs>
</svg>
