<svg width="24" height="24" viewBox="0 0 24 24" fill="none" xmlns="http://www.w3.org/2000/svg">
<g clip-path="url(#clip0_153:6139)">
<path d="M20.4836 3.5302C25.1653 8.21559 25.1623 15.8091 20.4769 20.4907C15.7915 25.1724 8.19806 25.1694 3.51638 20.484C-1.16269 15.8013 -1.16269 8.21299 3.51638 3.5302C8.17139 -1.15519 15.7433 -1.17978 20.4287 3.47522C20.447 3.49348 20.4654 3.51181 20.4836 3.5302Z" fill="#FF4852"/>
<path d="M17.9623 8.12968L14.0783 12.0138L17.9623 15.8978L15.8841 17.9761L12 14.0921L8.11595 17.9761L6.0376 15.8978L9.92171 12.0138L6.0376 8.12968L8.11595 6.05139L12 9.93544L15.8841 6.05139L17.9623 8.12968Z" fill="white"/>
</g>
<defs>
<clipPath id="clip0_153:6139">
<rect width="24" height="24" fill="white"/>
</clipPath>
</defs>
</svg>
