<svg width="16" height="16" viewBox="0 0 16 16" fill="none" xmlns="http://www.w3.org/2000/svg">
<path d="M9.96377 12.5875H8.99799V14.0362H9.96377C10.3638 14.0362 10.6881 13.7119 10.6881 13.3119C10.6881 12.9118 10.3638 12.5875 9.96377 12.5875Z" fill="#D63D76"/>
<path d="M13.3119 5.31187C13.3119 2.37822 10.9336 0 7.99999 0C5.06633 0 2.68811 2.37822 2.68811 5.31187C2.68811 7.99981 4.6847 10.221 7.27564 10.5744V12.5875H6.0362C5.63617 12.5875 5.31186 12.9118 5.31186 13.3119C5.31186 13.7119 5.63617 14.0362 6.0362 14.0362H7.27564V15.2757C7.27564 15.6757 7.59995 16 7.99999 16C8.40002 16 8.72433 15.6757 8.72433 15.2757V14.0362H8.99799C9.39802 14.0362 9.72233 13.7119 9.72233 13.3119C9.72233 12.9118 9.39802 12.5875 8.99799 12.5875H8.72433V10.5744C11.3153 10.221 13.3119 7.99981 13.3119 5.31187ZM7.99999 9.17506C5.86642 9.17506 4.1368 7.44544 4.1368 5.31187C4.1368 3.17831 5.86642 1.44869 7.99999 1.44869C10.1335 1.44869 11.8632 3.17831 11.8632 5.31187C11.8632 7.44544 10.1335 9.17506 7.99999 9.17506Z" fill="#FF4181"/>
</svg>
