<svg width="49" height="49" viewBox="0 0 49 49" fill="none" xmlns="http://www.w3.org/2000/svg">
<path d="M39.8125 49H9.1875C4.11294 49 0 44.8871 0 39.8125V9.1875C0 4.11294 4.11294 0 9.1875 0H39.8125C44.8871 0 49 4.11294 49 9.1875V39.8125C49 44.8871 44.8871 49 39.8125 49Z" fill="#F2F6FE"/>
<g clip-path="url(#clip0_2116_92872)">
<path d="M14.6562 25.6965V25.3589C14.6562 24.7991 15.0969 24.3456 15.6406 24.3456H28.1094V28.399H14.6562" fill="#E3FCFD"/>
<path d="M16.9531 32.7031C17.678 32.7031 18.2656 32.1155 18.2656 31.3906C18.2656 30.6658 17.678 30.0781 16.9531 30.0781C16.2283 30.0781 15.6406 30.6658 15.6406 31.3906C15.6406 32.1155 16.2283 32.7031 16.9531 32.7031Z" fill="#E3FCFD"/>
<path d="M32.0469 34.0156C32.7717 34.0156 33.3594 33.428 33.3594 32.7031C33.3594 31.9783 32.7717 31.3906 32.0469 31.3906C31.322 31.3906 30.7344 31.9783 30.7344 32.7031C30.7344 33.428 31.322 34.0156 32.0469 34.0156Z" fill="#E3FCFD"/>
<path d="M25.8125 14.6562H28.4375V17.9375H25.8125V14.6562Z" fill="#00E1F0"/>
<path d="M28.1094 24.3455V28.3989H29.311L34.4642 25.6305L32.7432 22.1769L28.1094 24.3455Z" fill="#00E1F0"/>
<path d="M34.8491 24.3327L34.0353 22.692C33.9523 22.508 33.8338 22.3419 33.6875 22.2031V15.6406C33.6875 14.7347 32.9528 14 32.0469 14H23.8438C23.4812 14 23.1875 14.2937 23.1875 14.6562C23.1875 15.0188 23.4812 15.3125 23.8438 15.3125H25.1562V17.2812C25.1562 18.0609 25.7049 18.7332 26.4688 18.8891V19.25C26.4688 19.6126 26.7624 19.9062 27.125 19.9062C27.4876 19.9062 27.7812 19.6126 27.7812 19.25V18.8891C28.5451 18.7332 29.0938 18.0609 29.0938 17.2812V15.3125H32.0469C32.228 15.3125 32.375 15.4595 32.375 15.6406V21.7798C32.1949 21.8002 32.0196 21.8514 31.8566 21.9308L29.75 22.9644V22.8594C29.75 21.9534 29.0153 21.2188 28.1094 21.2188H22.2031C21.2972 21.2188 20.5625 21.9534 20.5625 22.8594V23.8438H15.6406C14.7347 23.8438 14 24.5784 14 25.4844V25.8125C14 26.1751 14.2937 26.4688 14.6562 26.4688C15.0188 26.4688 15.3125 26.1751 15.3125 25.8125V25.4844C15.3125 25.3033 15.4595 25.1562 15.6406 25.1562H27.4531V27.7812H14.6562C14.2937 27.7812 14 28.0749 14 28.4375C14 28.8001 14.2937 29.0938 14.6562 29.0938H16.2969V29.8648C15.2718 30.2274 14.7347 31.3522 15.0969 32.3773C15.4595 33.4024 16.5843 33.9395 17.6094 33.5773C18.6344 33.215 19.1716 32.0899 18.8093 31.0648C18.6111 30.504 18.1701 30.063 17.6094 29.8648V29.0938H31.3906V31.1773C30.3656 31.5399 29.8284 32.6647 30.1907 33.6898C30.5532 34.7149 31.6781 35.252 32.7031 34.8898C33.7282 34.5272 34.2653 33.4024 33.9031 32.3773C33.7049 31.8165 33.2639 31.3755 32.7031 31.1773V29.0938H33.3594C33.722 29.0938 34.0156 28.8001 34.0156 28.4375C34.0156 28.0749 33.722 27.7812 33.3594 27.7812H31.5481L34.0977 26.5278C34.9114 26.1291 35.2477 25.1464 34.8491 24.3327V24.3327ZM27.7812 17.2812C27.7812 17.4624 27.6342 17.6094 27.4531 17.6094H26.7969C26.6158 17.6094 26.4688 17.4624 26.4688 17.2812V15.3125H27.7812V17.2812ZM16.9531 32.375C16.5905 32.375 16.2969 32.0813 16.2969 31.7188C16.2969 31.3562 16.5905 31.0625 16.9531 31.0625C17.3157 31.0625 17.6094 31.3562 17.6094 31.7188C17.6094 32.0813 17.3157 32.375 16.9531 32.375ZM32.0469 33.6875C31.6843 33.6875 31.3906 33.3938 31.3906 33.0312C31.3906 32.6687 31.6843 32.375 32.0469 32.375C32.4095 32.375 32.7031 32.6687 32.7031 33.0312C32.7031 33.3938 32.4095 33.6875 32.0469 33.6875ZM21.875 23.8438V22.8594C21.875 22.6783 22.022 22.5312 22.2031 22.5312H28.1094C28.2905 22.5312 28.4375 22.6783 28.4375 22.8594V23.6075L27.942 23.8438H21.875ZM33.5366 25.3498L28.7656 27.6959V24.9102L32.4341 23.1088C32.5962 23.0284 32.793 23.0943 32.8738 23.2564L33.6875 24.897C33.7699 25.0585 33.7062 25.256 33.5448 25.3387C33.5369 25.3426 33.5287 25.3466 33.5202 25.3498H33.5366Z" fill="#003CBF"/>
<path d="M21.3662 35C21.7286 35 22.0225 34.7062 22.0225 34.3438C22.0225 33.9813 21.7286 33.6875 21.3662 33.6875C21.0038 33.6875 20.71 33.9813 20.71 34.3438C20.71 34.7062 21.0038 35 21.3662 35Z" fill="#00E1F0"/>
<path d="M14.1475 34.3438C14.1475 34.7063 14.4411 35 14.8037 35H18.7412C19.1038 35 19.3975 34.7063 19.3975 34.3438C19.3975 33.9812 19.1038 33.6875 18.7412 33.6875H14.8037C14.4411 33.6875 14.1475 33.9812 14.1475 34.3438V34.3438Z" fill="#003CBF"/>
</g>
<defs>
<clipPath id="clip0_2116_92872">
<rect width="21" height="21" fill="white" transform="translate(14 14)"/>
</clipPath>
</defs>
</svg>
