<svg width="38" height="38" viewBox="0 0 38 38" fill="none" xmlns="http://www.w3.org/2000/svg">
<rect width="38" height="38" rx="9" fill="#EEEAFF"/>
<path fill-rule="evenodd" clip-rule="evenodd" d="M11.6111 15.8333C11.6111 11.7483 14.915 8.44446 19 8.44446C23.085 8.44446 26.3889 11.7483 26.3889 15.8333C26.3889 21.375 19 29.5556 19 29.5556C19 29.5556 11.6111 21.375 11.6111 15.8333ZM19 10.5556C16.0867 10.5556 13.7222 12.92 13.7222 15.8333C13.7222 18.8417 16.8044 23.4439 19 26.2622C21.2378 23.4228 24.2778 18.8733 24.2778 15.8333C24.2778 12.92 21.9133 10.5556 19 10.5556Z" fill="#484F8F"/>
<path d="M19 18.4722C20.4574 18.4722 21.6389 17.2908 21.6389 15.8333C21.6389 14.3759 20.4574 13.1945 19 13.1945C17.5426 13.1945 16.3611 14.3759 16.3611 15.8333C16.3611 17.2908 17.5426 18.4722 19 18.4722Z" fill="#484F8F"/>
</svg>
