<svg width="16" height="16" viewBox="0 0 16 16" fill="none" xmlns="http://www.w3.org/2000/svg">
<path d="M14.5513 4.58752V5.55331C14.5513 5.95334 14.8756 6.27765 15.2757 6.27765C15.6757 6.27765 16 5.95334 16 5.55331V4.58752H14.5513Z" fill="#009DB2"/>
<path d="M15.0342 0H10.4467C10.0467 0 9.72234 0.324313 9.72234 0.724344C9.72234 1.12437 10.0467 1.44869 10.4467 1.44869H13.5269L10.1748 4.80081C9.10413 3.95188 7.75019 3.44469 6.27766 3.44469C2.81059 3.44466 0 6.25525 0 9.72234C0 13.1894 2.81059 16 6.27766 16C9.74472 16 12.5553 13.1894 12.5553 9.72234C12.5553 8.24984 12.0481 6.89587 11.1992 5.82519L14.5513 2.47309V4.58753C14.5513 4.98756 14.8756 5.31187 15.2757 5.31187C15.6757 5.31187 16 4.98756 16 4.58753V0.965781C16 0.434594 15.5654 0 15.0342 0ZM6.27766 14.5513C3.61069 14.5513 1.44869 12.3893 1.44869 9.72234C1.44869 7.05537 3.61069 4.89337 6.27766 4.89337C8.94462 4.89337 11.1066 7.05537 11.1066 9.72234C11.1066 12.3893 8.94466 14.5513 6.27766 14.5513Z" fill="#00BBD3"/>
</svg>
