<svg width="49" height="49" viewBox="0 0 49 49" fill="none" xmlns="http://www.w3.org/2000/svg">
<rect width="49" height="49" rx="12" fill="#F2F6FE"/>
<g clip-path="url(#clip0_378:72892)">
<path d="M30.2847 30.625C31.6002 30.625 32.6666 29.5585 32.6666 28.243C32.6666 26.9275 31.6002 25.8611 30.2847 25.8611C28.9691 25.8611 27.9027 26.9275 27.9027 28.243C27.9027 29.5585 28.9691 30.625 30.2847 30.625Z" fill="#00E1F0"/>
<path d="M33.3472 28.243C33.3468 27.5494 33.111 26.8764 32.6782 26.3343C32.2455 25.7921 31.6416 25.4129 30.9653 25.2588V23.309C30.9653 22.4517 30.6247 21.6294 30.0184 21.0232C29.4122 20.4169 28.59 20.0764 27.7326 20.0764C26.8753 20.0764 26.053 20.4169 25.4468 21.0232C24.8406 21.6294 24.5 22.4517 24.5 23.309V31.8159C24.4991 32.4023 24.2658 32.9643 23.8512 33.3789C23.4366 33.7935 22.8745 34.0269 22.2882 34.0278H21.2673C20.681 34.0269 20.1189 33.7935 19.7043 33.3789C19.2897 32.9643 19.0564 32.4023 19.0555 31.8159V27.2222H19.7361C20.1829 27.2222 20.6254 27.1342 21.0383 26.9632C21.4511 26.7922 21.8262 26.5415 22.1422 26.2255C22.4582 25.9096 22.7088 25.5344 22.8798 25.1216C23.0508 24.7088 23.1389 24.2663 23.1389 23.8194V15.3125C23.1389 14.8612 22.9596 14.4285 22.6405 14.1094C22.3215 13.7903 21.8887 13.6111 21.4375 13.6111H20.4166C20.2361 13.6111 20.063 13.6828 19.9354 13.8104C19.8078 13.938 19.7361 14.1111 19.7361 14.2916C19.7361 14.4721 19.8078 14.6452 19.9354 14.7729C20.063 14.9005 20.2361 14.9722 20.4166 14.9722H21.4375C21.5277 14.9722 21.6143 15.008 21.6781 15.0719C21.7419 15.1357 21.7778 15.2222 21.7778 15.3125V23.1389H14.9722V20.7569C14.9722 20.5764 14.9005 20.4033 14.7729 20.2757C14.6452 20.1481 14.4721 20.0764 14.2916 20.0764C14.1111 20.0764 13.938 20.1481 13.8104 20.2757C13.6828 20.4033 13.6111 20.5764 13.6111 20.7569V23.8194C13.6111 24.7219 13.9696 25.5874 14.6077 26.2255C15.2459 26.8637 16.1114 27.2222 17.0139 27.2222H17.6944V31.8159C17.6953 32.7627 18.0716 33.6704 18.7407 34.3402C19.4098 35.0099 20.3172 35.3871 21.2639 35.3889H22.2848C23.2324 35.388 24.141 35.0114 24.8114 34.3416C25.4818 33.6718 25.8593 32.7636 25.8611 31.8159V23.309C25.8611 22.8126 26.0583 22.3366 26.4092 21.9856C26.7602 21.6347 27.2363 21.4375 27.7326 21.4375C28.229 21.4375 28.705 21.6347 29.056 21.9856C29.407 22.3366 29.6041 22.8126 29.6041 23.309V25.2588C29.042 25.3869 28.5274 25.6711 28.1196 26.0788C27.7118 26.4864 27.4274 27.0009 27.299 27.563C27.1707 28.1251 27.2036 28.712 27.3941 29.2562C27.5845 29.8005 27.9247 30.2799 28.3756 30.6393C28.8264 30.9988 29.3695 31.2236 29.9425 31.288C30.5155 31.3525 31.095 31.2538 31.6144 31.0035C32.1338 30.7531 32.572 30.3613 32.8785 29.8729C33.1851 29.3846 33.3475 28.8196 33.3472 28.243ZM15.0947 24.5H21.6655C21.5245 24.8988 21.2631 25.2439 20.9175 25.4877C20.5719 25.7315 20.1591 25.862 19.7361 25.8611H17.0139C16.5926 25.8599 16.1821 25.7285 15.8385 25.4848C15.4949 25.2411 15.2351 24.8971 15.0947 24.5ZM30.2847 29.9444C29.9482 29.9444 29.6192 29.8446 29.3395 29.6577C29.0597 29.4707 28.8416 29.205 28.7128 28.8941C28.584 28.5832 28.5504 28.2411 28.616 27.9111C28.6816 27.5811 28.8437 27.2779 29.0816 27.04C29.3196 26.802 29.6227 26.64 29.9528 26.5743C30.2828 26.5087 30.6249 26.5424 30.9358 26.6712C31.2467 26.7999 31.5124 27.018 31.6993 27.2978C31.8863 27.5776 31.9861 27.9065 31.9861 28.243C31.9861 28.4665 31.9421 28.6877 31.8566 28.8941C31.7711 29.1005 31.6457 29.2881 31.4878 29.4461C31.3298 29.6041 31.1422 29.7294 30.9358 29.8149C30.7294 29.9004 30.5081 29.9444 30.2847 29.9444Z" fill="#0065FF"/>
<path d="M14.2916 18.7153C14.4721 18.7153 14.6452 18.6435 14.7729 18.5159C14.9005 18.3883 14.9722 18.2152 14.9722 18.0347V15.3125C14.9722 15.2222 15.008 15.1357 15.0719 15.0719C15.1357 15.008 15.2222 14.9722 15.3125 14.9722H16.3333C16.5138 14.9722 16.6869 14.9005 16.8145 14.7729C16.9422 14.6452 17.0139 14.4721 17.0139 14.2916C17.0139 14.1111 16.9422 13.938 16.8145 13.8104C16.6869 13.6828 16.5138 13.6111 16.3333 13.6111H15.3125C14.8612 13.6111 14.4285 13.7903 14.1094 14.1094C13.7903 14.4285 13.6111 14.8612 13.6111 15.3125V18.0347C13.6111 18.2152 13.6828 18.3883 13.8104 18.5159C13.938 18.6435 14.1111 18.7153 14.2916 18.7153Z" fill="#0065FF"/>
<path d="M34.7048 32.6667C35.0807 32.6667 35.3854 32.362 35.3854 31.9861C35.3854 31.6102 35.0807 31.3055 34.7048 31.3055C34.329 31.3055 34.0243 31.6102 34.0243 31.9861C34.0243 32.362 34.329 32.6667 34.7048 32.6667Z" fill="#00E1F0"/>
<path d="M27.2222 31.9861C27.2222 32.1666 27.2939 32.3397 27.4215 32.4673C27.5491 32.595 27.7222 32.6667 27.9027 32.6667H31.9861C32.1666 32.6667 32.3397 32.595 32.4673 32.4673C32.5949 32.3397 32.6666 32.1666 32.6666 31.9861C32.6666 31.8056 32.5949 31.6325 32.4673 31.5049C32.3397 31.3772 32.1666 31.3055 31.9861 31.3055H27.9027C27.7222 31.3055 27.5491 31.3772 27.4215 31.5049C27.2939 31.6325 27.2222 31.8056 27.2222 31.9861Z" fill="#0065FF"/>
</g>
<defs>
<clipPath id="clip0_378:72892">
<rect width="21.7778" height="21.7778" fill="white" transform="translate(13.6111 13.6111)"/>
</clipPath>
</defs>
</svg>
