<svg width="53" height="53" viewBox="0 0 53 53" fill="none" xmlns="http://www.w3.org/2000/svg">
<g clip-path="url(#clip0_288:69411)">
<path d="M18.613 41.552L10.706 45.865C10.242 46.118 9.82501 46.429 9.43701 46.768C14.047 50.655 19.998 53 26.5 53C32.954 53 38.867 50.69 43.464 46.856C43.04 46.498 42.58 46.176 42.07 45.922L33.603 41.689C32.509 41.142 31.818 40.024 31.818 38.801V35.479C32.056 35.208 32.328 34.86 32.619 34.449C33.773 32.819 34.646 31.026 35.251 29.145C36.337 28.81 37.137 27.807 37.137 26.615V23.069C37.137 22.289 36.79 21.592 36.251 21.104V15.978C36.251 15.978 37.304 8.00101 26.501 8.00101C15.698 8.00101 16.751 15.978 16.751 15.978V21.104C16.211 21.592 15.865 22.289 15.865 23.069V26.615C15.865 27.549 16.356 28.371 17.091 28.846C17.977 32.703 20.297 35.479 20.297 35.479V38.719C20.296 39.899 19.65 40.986 18.613 41.552Z" fill="#E7ECED"/>
<path d="M26.953 0.00399957C12.32 -0.246 0.253995 11.414 0.00399455 26.047C-0.138005 34.344 3.55999 41.801 9.44799 46.76C9.83299 46.424 10.246 46.116 10.705 45.866L18.612 41.553C19.649 40.987 20.295 39.9 20.295 38.718V35.478C20.295 35.478 17.974 32.702 17.089 28.845C16.355 28.37 15.863 27.549 15.863 26.614V23.068C15.863 22.288 16.21 21.591 16.749 21.103V15.977C16.749 15.977 15.696 8 26.499 8C37.302 8 36.249 15.977 36.249 15.977V21.103C36.789 21.591 37.135 22.288 37.135 23.068V26.614C37.135 27.806 36.335 28.809 35.249 29.144C34.644 31.025 33.771 32.818 32.617 34.448C32.326 34.859 32.054 35.207 31.816 35.478V38.8C31.816 40.023 32.507 41.142 33.601 41.688L42.068 45.921C42.576 46.175 43.035 46.496 43.458 46.853C49.168 42.091 52.857 34.971 52.994 26.953C53.246 12.32 41.587 0.254 26.953 0.00399957Z" fill="#556080"/>
</g>
<defs>
<clipPath id="clip0_288:69411">
<rect width="53" height="53" fill="white"/>
</clipPath>
</defs>
</svg>
