<svg width="38" height="38" viewBox="0 0 38 38" fill="none" xmlns="http://www.w3.org/2000/svg">
<rect width="38" height="38" rx="10" fill="#EEEAFF"/>
<path fill-rule="evenodd" clip-rule="evenodd" d="M7.29 18.67C10.34 15.78 14.46 14 19 14C23.3582 13.9954 27.5511 15.6675 30.71 18.67C30.89 18.85 31 19.1 31 19.38C31 19.66 30.89 19.91 30.71 20.09L28.23 22.57C28.05 22.75 27.8 22.86 27.52 22.86C27.25 22.86 27 22.75 26.82 22.58C26.03 21.84 25.13 21.22 24.15 20.73C23.82 20.57 23.59 20.23 23.59 19.83V16.73C22.15 16.25 20.6 16 19 16C17.4 16 15.85 16.25 14.4 16.72V19.82C14.4 20.21 14.17 20.56 13.84 20.72C12.86 21.21 11.97 21.84 11.18 22.57C11 22.75 10.75 22.85 10.48 22.85C10.2 22.85 9.95 22.74 9.77 22.56L7.29 20.08C7.11 19.91 7 19.66 7 19.38C7 19.1 7.11 18.85 7.29 18.67ZM12.4 17.52V19.22C11.75 19.59 11.12 20.01 10.53 20.49L9.46 19.42C10.37 18.67 11.36 18.04 12.4 17.52ZM25.59 17.52L25.6 17.5249V19.23C26.27 19.61 26.9 20.03 27.48 20.5L28.55 19.43C27.6329 18.6724 26.6463 18.0341 25.6 17.5249V17.52H25.59Z" fill="#484F8F"/>
</svg>
