<svg width="49" height="49" viewBox="0 0 49 49" fill="none" xmlns="http://www.w3.org/2000/svg">
<path d="M39.8125 49H9.1875C4.11294 49 0 44.8871 0 39.8125V9.1875C0 4.11294 4.11294 0 9.1875 0H39.8125C44.8871 0 49 4.11294 49 9.1875V39.8125C49 44.8871 44.8871 49 39.8125 49Z" fill="#EBF5EF"/>
<path fill-rule="evenodd" clip-rule="evenodd" d="M11.6664 24.0001C11.6664 33.2495 14.7504 36.3335 23.9997 36.3335C33.249 36.3335 36.333 33.2495 36.333 24.0001C36.333 14.7508 33.249 11.6668 23.9997 11.6668C14.7504 11.6668 11.6664 14.7508 11.6664 24.0001Z" stroke="#0F62F9" stroke-width="3" stroke-linecap="round" stroke-linejoin="round"/>
<path d="M19.2535 24.0001L22.4189 27.1641L28.7469 20.8361" stroke="#0F62F9" stroke-width="2" stroke-linecap="round" stroke-linejoin="round"/>
<path d="M39.5 36C40.8807 36 42 34.8807 42 33.5C42 32.1193 40.8807 31 39.5 31C38.1193 31 37 32.1193 37 33.5C37 34.8807 38.1193 36 39.5 36Z" fill="#00E1F0"/>
</svg>
