<svg width="49" height="49" viewBox="0 0 49 49" fill="none" xmlns="http://www.w3.org/2000/svg">
<path d="M39.8125 49H9.1875C4.11294 49 0 44.8871 0 39.8125V9.1875C0 4.11294 4.11294 0 9.1875 0H39.8125C44.8871 0 49 4.11294 49 9.1875V39.8125C49 44.8871 44.8871 49 39.8125 49Z" fill="#FDFED9"/>
<path d="M23.6578 12.25C18.5496 12.25 14.3937 16.4303 14.3937 21.5738C14.3937 22.0806 14.2513 22.5752 13.9818 23.004L11.7171 26.6254C11.564 26.8688 11.4844 27.1475 11.4844 27.4293C11.4844 28.2607 12.1597 28.9376 12.9896 28.9376H14.3937V31.334C14.3937 32.7044 15.5039 33.8192 16.8698 33.8192C17.1454 33.8192 17.4057 33.7763 17.5956 33.7059L19.2447 33.2021V35.7287C19.2447 36.2922 19.7026 36.75 20.2661 36.75H28.9942C29.5577 36.75 30.0156 36.2922 30.0156 35.7287V30.821C30.0156 29.4199 30.4397 28.0724 31.2421 26.9209C32.3431 25.3437 32.9249 23.494 32.9249 21.5692C32.9219 16.4303 28.7661 12.25 23.6578 12.25ZM20.8709 31.0032C20.6106 30.8103 20.2737 30.7552 19.966 30.847L16.9969 31.7551C16.9816 31.7597 16.8836 31.7734 16.8682 31.778C16.6248 31.778 16.4349 31.5836 16.4349 31.334V29.2331L20.4238 26.9561C21.4926 26.3436 22.7299 26.4064 23.7313 27.1261C24.7343 27.8473 25.1891 29.0003 24.9487 30.21L24.0513 34.7073H21.2844V31.8224C21.2844 31.4993 21.1313 31.1946 20.8709 31.0032ZM29.5654 25.7541C28.5226 27.2501 27.9713 29.0019 27.9713 30.8225V34.7088H26.1323L26.95 30.6097C27.3466 28.6221 26.5702 26.6529 24.9226 25.4693C23.2765 24.2872 21.1634 24.18 19.4101 25.1845L16.023 27.1184C15.8515 26.9867 15.6478 26.8964 15.4151 26.8964H13.9558L15.7137 24.0866C16.1868 23.3317 16.4364 22.4619 16.4364 21.5692C16.4364 17.5558 19.6766 14.2896 23.6578 14.2896C27.6406 14.2896 30.8807 17.5543 30.8807 21.5692C30.8807 23.0744 30.4259 24.5214 29.5654 25.7541Z" fill="#0065FF"/>
</svg>
