<svg width="49" height="49" viewBox="0 0 49 49" fill="none" xmlns="http://www.w3.org/2000/svg">
<rect width="49" height="49" rx="12" fill="#FFFADD"/>
<path d="M20.875 21.9375C22.3938 21.9375 23.625 20.7063 23.625 19.1875C23.625 17.6687 22.3938 16.4375 20.875 16.4375C19.3562 16.4375 18.125 17.6687 18.125 19.1875C18.125 20.7063 19.3562 21.9375 20.875 21.9375Z" fill="#E3FCFD"/>
<path d="M16.4062 26.4922H27.0625V28.2109C27.0625 28.7805 26.6008 29.2422 26.0312 29.2422H17.4375C16.8679 29.2422 16.4062 28.7805 16.4062 28.2109V26.4922Z" fill="#E3FCFD"/>
<path d="M33.357 14.185L34.8155 15.6436C35.2184 16.0464 35.2184 16.6992 34.8155 17.1021L30.1096 21.808C29.7067 22.2109 29.0539 22.2109 28.6511 21.808L27.1925 20.3495C26.7897 19.9466 26.7897 19.2938 27.1925 18.891L31.8985 14.185C32.3014 13.7825 32.9545 13.7825 33.357 14.185V14.185Z" fill="#00E1F0"/>
<path d="M35.0683 14.9045L35.797 14.1723C36.0634 13.9042 36.0634 13.4711 35.797 13.2029C35.5289 12.9365 35.0958 12.9365 34.8276 13.2029L34.0955 13.9317L33.8548 13.6876C33.1838 13.0166 32.0955 13.0166 31.4245 13.6876L26.7186 18.3935C26.0476 19.0645 26.0476 20.1529 26.7186 20.8239L28.1761 22.2814C28.8471 22.9524 29.9354 22.9524 30.6064 22.2814L32.4523 20.432C32.9817 21.5468 33.2543 22.766 33.2498 24.0001C33.2498 24.38 33.5575 24.6876 33.9373 24.6876C34.3172 24.6876 34.6248 24.38 34.6248 24.0001C34.6259 22.402 34.2264 20.829 33.463 19.4248L35.3123 17.5754C35.9833 16.9044 35.9833 15.8161 35.3123 15.1451L35.0683 14.9045ZM34.3395 16.6026L29.6336 21.312C29.4999 21.4467 29.2823 21.4478 29.1475 21.314C29.1468 21.3134 29.1461 21.3127 29.1455 21.312L27.688 19.851C27.5546 19.717 27.5546 19.5004 27.688 19.3664L32.3973 14.6604C32.5314 14.527 32.748 14.527 32.882 14.6604L34.3395 16.1179C34.4729 16.252 34.4729 16.4685 34.3395 16.6026V16.6026Z" fill="#003CBF"/>
<path d="M33.2534 34.9932C33.6331 34.9932 33.9409 34.6854 33.9409 34.3057C33.9409 33.926 33.6331 33.6182 33.2534 33.6182C32.8737 33.6182 32.5659 33.926 32.5659 34.3057C32.5659 34.6854 32.8737 34.9932 33.2534 34.9932Z" fill="#00E1F0"/>
<path d="M18.4688 34.3125C18.4688 34.6923 18.7764 35 19.1562 35H30.5C30.8798 35 31.1875 34.6923 31.1875 34.3125C31.1875 33.9326 30.8798 33.625 30.5 33.625H19.1562C18.7764 33.625 18.4688 33.9326 18.4688 34.3125Z" fill="#003CBF"/>
<path d="M16.75 19.875H17.5097C17.597 20.3061 17.7675 20.7158 18.0116 21.0816L17.6438 21.4459C17.3753 21.7144 17.3753 22.1503 17.6438 22.4187C17.9122 22.6872 18.3481 22.6872 18.6166 22.4187L18.9878 22.0475C19.3512 22.2912 19.7588 22.4617 20.1875 22.5494V23.6562C20.1875 24.0361 20.4952 24.3438 20.875 24.3438C21.2548 24.3438 21.5625 24.0361 21.5625 23.6562V22.5562C21.9936 22.4689 22.4033 22.2984 22.7691 22.0544L23.1438 22.4187C23.4122 22.6872 23.8481 22.6872 24.1166 22.4187C24.385 22.1503 24.385 21.7144 24.1166 21.4459L23.7453 21.0747C23.9887 20.711 24.1592 20.3037 24.2472 19.875H24.3125C24.6923 19.875 25 19.5673 25 19.1875C25 18.8077 24.6923 18.5 24.3125 18.5H24.2437C24.1564 18.07 23.9859 17.6612 23.7419 17.2969L24.5222 16.5166C24.7907 16.2481 24.7907 15.8122 24.5222 15.5438C24.2537 15.2753 23.8178 15.2753 23.5494 15.5438L22.7725 16.3172C22.4057 16.0724 21.9946 15.9019 21.5625 15.8153V14.7188C21.5625 14.3389 21.2548 14.0312 20.875 14.0312C20.4952 14.0312 20.1875 14.3389 20.1875 14.7188V15.8153C19.7575 15.9026 19.3487 16.0731 18.9844 16.3172L18.9569 16.2897C18.675 16.0353 18.2402 16.0573 17.9858 16.3392C17.7489 16.6015 17.7496 17.0009 17.9875 17.2625L18.015 17.29C17.7699 17.6564 17.5994 18.0676 17.5131 18.5H16.75C16.3702 18.5 16.0625 18.8077 16.0625 19.1875C16.0625 19.5673 16.3702 19.875 16.75 19.875V19.875ZM20.875 18.1562C21.2548 18.1562 21.5625 17.8486 21.5625 17.4688V17.2453C22.3858 17.5365 22.9365 18.3144 22.9375 19.1875C22.9382 19.4958 22.8687 19.8001 22.7347 20.0778L22.5938 19.9128C22.3053 19.666 21.8712 19.6993 21.6244 19.9877C21.404 20.2452 21.404 20.6247 21.6244 20.8822L21.7825 21.0403C21.5003 21.1792 21.1895 21.251 20.875 21.25C19.7358 21.2462 18.8156 20.3202 18.819 19.181C18.8218 18.312 19.369 17.5378 20.1875 17.2453V17.4688C20.1875 17.8486 20.4952 18.1562 20.875 18.1562V18.1562Z" fill="#003CBF"/>
<path d="M20.1909 19.8682C20.5706 19.8682 20.8784 19.5604 20.8784 19.1807C20.8784 18.801 20.5706 18.4932 20.1909 18.4932C19.8112 18.4932 19.5034 18.801 19.5034 19.1807C19.5034 19.5604 19.8112 19.8682 20.1909 19.8682Z" fill="#00E1F0"/>
<path d="M33.7175 26.09C33.3569 25.9707 32.9681 26.1663 32.8488 26.5269C32.8485 26.5279 32.8482 26.529 32.8478 26.53C31.7633 29.8599 28.7036 32.1493 25.2028 32.25C23.8945 32.2847 22.5975 32.0028 21.4216 31.4284C21.3037 31.3707 21.2287 31.2504 21.2291 31.1191V29.8437H26.0312C26.9803 29.8437 27.75 29.0741 27.75 28.125V27.0937H28.7812C29.1611 27.0937 29.4687 26.7861 29.4687 26.4062C29.4687 26.0264 29.1611 25.7187 28.7812 25.7187H14.6875C14.3077 25.7187 14 26.0264 14 26.4062C14 26.7861 14.3077 27.0937 14.6875 27.0937H15.7187V28.125C15.7187 29.0741 16.4884 29.8437 17.4375 29.8437H19.8437V31.1191C19.8431 31.777 20.2181 32.3779 20.8097 32.6659C22.1146 33.3026 23.5483 33.6305 25 33.625H25.2337C29.3209 33.5181 32.8994 30.8523 34.1712 26.9666C34.2919 26.6066 34.0977 26.2168 33.7374 26.0965C33.7309 26.0941 33.7244 26.0921 33.7175 26.09V26.09ZM17.0937 28.125V27.0937H26.375V28.125C26.375 28.3147 26.221 28.4687 26.0312 28.4687H17.4375C17.2477 28.4687 17.0937 28.3147 17.0937 28.125Z" fill="#003CBF"/>
</svg>
