<svg width="49" height="49" viewBox="0 0 49 49" fill="none" xmlns="http://www.w3.org/2000/svg">
<rect width="49" height="49" rx="12" fill="#EBF5EF"/>
<g clip-path="url(#clip0_2116_93015)">
<path d="M14.6807 20.1458V14.7014C14.6807 14.4306 14.7882 14.171 14.9797 13.9795C15.1711 13.7881 15.4308 13.6805 15.7015 13.6805H25.2293C25.5 13.6805 25.7597 13.7881 25.9511 13.9795C26.1426 14.171 26.2501 14.4306 26.2501 14.7014V34.0972H14.6807V22.868" fill="#E3FCFD"/>
<path d="M26.25 21.507H30.6736C30.9444 21.507 31.204 21.6145 31.3954 21.806C31.5869 21.9974 31.6944 22.257 31.6944 22.5278V34.0972H26.25V21.507Z" fill="#E3FCFD"/>
<path d="M17.7432 27.2917H23.1876V34.0972H17.7432V27.2917Z" fill="#00E1F0"/>
<path d="M35.0973 34.7778C35.4732 34.7778 35.7779 34.4731 35.7779 34.0972C35.7779 33.7214 35.4732 33.4167 35.0973 33.4167C34.7214 33.4167 34.4167 33.7214 34.4167 34.0972C34.4167 34.4731 34.7214 34.7778 35.0973 34.7778Z" fill="#00E1F0"/>
<path d="M32.375 33.4167V22.5278C32.375 22.0765 32.1957 21.6438 31.8767 21.3247C31.5576 21.0056 31.1248 20.8264 30.6736 20.8264H26.9306V14.7014C26.9306 14.2502 26.7513 13.8174 26.4322 13.4983C26.1132 13.1793 25.6804 13 25.2292 13H15.7014C15.2502 13 14.8174 13.1793 14.4983 13.4983C14.1793 13.8174 14 14.2502 14 14.7014V20.1458C14 20.3263 14.0717 20.4994 14.1993 20.6271C14.327 20.7547 14.5001 20.8264 14.6806 20.8264C14.8611 20.8264 15.0342 20.7547 15.1618 20.6271C15.2894 20.4994 15.3611 20.3263 15.3611 20.1458V14.7014C15.3611 14.6111 15.397 14.5246 15.4608 14.4608C15.5246 14.397 15.6111 14.3611 15.7014 14.3611H25.2292C25.3194 14.3611 25.406 14.397 25.4698 14.4608C25.5336 14.5246 25.5694 14.6111 25.5694 14.7014V33.4167H23.8681V26.9514C23.8681 26.7709 23.7964 26.5978 23.6687 26.4702C23.5411 26.3425 23.368 26.2708 23.1875 26.2708H17.7431C17.5626 26.2708 17.3895 26.3425 17.2618 26.4702C17.1342 26.5978 17.0625 26.7709 17.0625 26.9514V33.4167H15.3611V22.8681C15.3611 22.6876 15.2894 22.5145 15.1618 22.3868C15.0342 22.2592 14.8611 22.1875 14.6806 22.1875C14.5001 22.1875 14.327 22.2592 14.1993 22.3868C14.0717 22.5145 14 22.6876 14 22.8681V34.0972C14 34.2777 14.0717 34.4508 14.1993 34.5784C14.327 34.7061 14.5001 34.7778 14.6806 34.7778H32.375C32.5555 34.7778 32.7286 34.7061 32.8562 34.5784C32.9839 34.4508 33.0556 34.2777 33.0556 34.0972C33.0556 33.9167 32.9839 33.7436 32.8562 33.616C32.7286 33.4884 32.5555 33.4167 32.375 33.4167ZM22.5069 33.4167H18.4236V27.6319H22.5069V33.4167ZM31.0139 33.4167H26.9306V22.1875H30.6736C30.7639 22.1875 30.8504 22.2234 30.9142 22.2872C30.978 22.351 31.0139 22.4375 31.0139 22.5278V33.4167Z" fill="#003CBF"/>
<path d="M20.4652 15.7222C20.2847 15.7222 20.1116 15.7939 19.984 15.9216C19.8563 16.0492 19.7846 16.2223 19.7846 16.4028V17.4236H18.7638C18.5833 17.4236 18.4102 17.4953 18.2826 17.6229C18.155 17.7506 18.0833 17.9237 18.0833 18.1042C18.0833 18.2847 18.155 18.4578 18.2826 18.5854C18.4102 18.713 18.5833 18.7847 18.7638 18.7847H19.7846V19.8056C19.7846 19.9861 19.8563 20.1592 19.984 20.2868C20.1116 20.4144 20.2847 20.4861 20.4652 20.4861C20.6457 20.4861 20.8188 20.4144 20.9464 20.2868C21.0741 20.1592 21.1458 19.9861 21.1458 19.8056V18.7847H22.1666C22.3471 18.7847 22.5202 18.713 22.6478 18.5854C22.7754 18.4578 22.8471 18.2847 22.8471 18.1042C22.8471 17.9237 22.7754 17.7506 22.6478 17.6229C22.5202 17.4953 22.3471 17.4236 22.1666 17.4236H21.1458V16.4028C21.1458 16.2223 21.0741 16.0492 20.9464 15.9216C20.8188 15.7939 20.6457 15.7222 20.4652 15.7222V15.7222Z" fill="#003CBF"/>
<path d="M28.9723 23.5486C28.7918 23.5486 28.6187 23.6203 28.4911 23.7479C28.3634 23.8755 28.2917 24.0486 28.2917 24.2291V25.9305C28.2917 26.111 28.3634 26.2841 28.4911 26.4118C28.6187 26.5394 28.7918 26.6111 28.9723 26.6111C29.1528 26.6111 29.3259 26.5394 29.4535 26.4118C29.5812 26.2841 29.6529 26.111 29.6529 25.9305V24.2291C29.6529 24.0486 29.5812 23.8755 29.4535 23.7479C29.3259 23.6203 29.1528 23.5486 28.9723 23.5486Z" fill="#003CBF"/>
<path d="M28.9723 27.9722C28.7918 27.9722 28.6187 28.0439 28.4911 28.1716C28.3634 28.2992 28.2917 28.4723 28.2917 28.6528V30.3542C28.2917 30.5347 28.3634 30.7078 28.4911 30.8354C28.6187 30.963 28.7918 31.0347 28.9723 31.0347C29.1528 31.0347 29.3259 30.963 29.4535 30.8354C29.5812 30.7078 29.6529 30.5347 29.6529 30.3542V28.6528C29.6529 28.4723 29.5812 28.2992 29.4535 28.1716C29.3259 28.0439 29.1528 27.9722 28.9723 27.9722Z" fill="#003CBF"/>
<path d="M16.7222 23.8889C16.7222 24.0694 16.7939 24.2425 16.9215 24.3701C17.0491 24.4977 17.2222 24.5694 17.4027 24.5694H19.1041C19.2846 24.5694 19.4577 24.4977 19.5853 24.3701C19.713 24.2425 19.7847 24.0694 19.7847 23.8889C19.7847 23.7084 19.713 23.5353 19.5853 23.4076C19.4577 23.28 19.2846 23.2083 19.1041 23.2083H17.4027C17.2222 23.2083 17.0491 23.28 16.9215 23.4076C16.7939 23.5353 16.7222 23.7084 16.7222 23.8889V23.8889Z" fill="#003CBF"/>
<path d="M21.1458 23.8889C21.1458 24.0694 21.2175 24.2425 21.3451 24.3701C21.4727 24.4977 21.6458 24.5694 21.8263 24.5694H23.5277C23.7082 24.5694 23.8813 24.4977 24.0089 24.3701C24.1366 24.2425 24.2083 24.0694 24.2083 23.8889C24.2083 23.7084 24.1366 23.5353 24.0089 23.4076C23.8813 23.28 23.7082 23.2083 23.5277 23.2083H21.8263C21.6458 23.2083 21.4727 23.28 21.3451 23.4076C21.2175 23.5353 21.1458 23.7084 21.1458 23.8889Z" fill="#003CBF"/>
</g>
<defs>
<clipPath id="clip0_2116_93015">
<rect width="21.7778" height="21.7778" fill="white" transform="translate(14 13)"/>
</clipPath>
</defs>
</svg>
