<svg width="49" height="49" viewBox="0 0 49 49" fill="none" xmlns="http://www.w3.org/2000/svg">
<rect width="49" height="49" rx="8.16667" fill="#D5D8F2"/>
<g clip-path="url(#clip0_378:72935)">
<path d="M32.3265 17.4741C32.3265 16.9103 31.8695 16.4533 31.3057 16.4533H17.6945C17.1307 16.4533 16.6737 16.9072 16.6737 17.4673V27.2707L24.1598 34.7082H31.3057C31.8695 34.7082 32.3265 34.2543 32.3265 33.6942V17.4741Z" fill="#E3FCFD"/>
<path d="M20.7571 14.2916H28.2432V18.375H20.7571V14.2916Z" fill="#00E1F0"/>
<path d="M25.5209 32.6667H26.882C27.258 32.6667 27.5626 32.3621 27.5626 31.9861C27.5626 31.6101 27.258 31.3055 26.882 31.3055H25.5209C25.1449 31.3055 24.8403 31.6101 24.8403 31.9861C24.8403 32.3621 25.1449 32.6667 25.5209 32.6667Z" fill="#0065FF"/>
<path d="M31.3055 15.6528H28.9236V14.2916C28.9236 13.9156 28.619 13.6111 28.243 13.6111H20.7569C20.3809 13.6111 20.0764 13.9156 20.0764 14.2916V15.6528H17.6944C16.7549 15.6528 15.993 16.4146 15.993 17.3541V20.0764C15.993 20.4524 16.2976 20.7569 16.6736 20.7569C17.0496 20.7569 17.3542 20.4524 17.3542 20.0764V17.3541C17.3542 17.1663 17.5066 17.0139 17.6944 17.0139H20.0764V18.375C20.0764 18.751 20.3809 19.0555 20.7569 19.0555H28.243C28.619 19.0555 28.9236 18.751 28.9236 18.375V17.0139H31.3055C31.4934 17.0139 31.6458 17.1663 31.6458 17.3541V33.6875C31.6458 33.8753 31.4934 34.0278 31.3055 34.0278H24.8403V28.243C24.8403 27.3035 24.0784 26.5416 23.1389 26.5416H17.3542V22.7986C17.3542 22.4226 17.0496 22.118 16.6736 22.118C16.2976 22.118 15.993 22.4226 15.993 22.7986V27.2222C15.9964 27.4019 16.0682 27.5734 16.1938 27.702L23.6799 35.1881C23.8068 35.316 23.9794 35.3882 24.1597 35.3889H31.3055C32.2451 35.3889 33.0069 34.627 33.0069 33.6875V17.3541C33.0069 16.4146 32.2451 15.6528 31.3055 15.6528ZM27.5625 17.6944H21.4375V14.9722H27.5625V17.6944ZM23.1389 27.9028C23.3267 27.9028 23.4792 28.0552 23.4792 28.243V33.0648L18.3171 27.9028H23.1389Z" fill="#0065FF"/>
<path d="M24.5001 20.4166C24.1241 20.4166 23.8196 20.7212 23.8196 21.0972V22.118H22.7987C22.4227 22.118 22.1182 22.4226 22.1182 22.7986C22.1182 23.1746 22.4227 23.4791 22.7987 23.4791H23.8196V24.5C23.8196 24.876 24.1241 25.1805 24.5001 25.1805C24.8761 25.1805 25.1807 24.876 25.1807 24.5V23.4791H26.2015C26.5775 23.4791 26.8821 23.1746 26.8821 22.7986C26.8821 22.4226 26.5775 22.118 26.2015 22.118H25.1807V21.0972C25.1807 20.7212 24.8761 20.4166 24.5001 20.4166Z" fill="#00E1F0"/>
<path d="M29.6044 32.6667C29.9802 32.6667 30.2849 32.362 30.2849 31.9861C30.2849 31.6102 29.9802 31.3055 29.6044 31.3055C29.2285 31.3055 28.9238 31.6102 28.9238 31.9861C28.9238 32.362 29.2285 32.6667 29.6044 32.6667Z" fill="#00E1F0"/>
</g>
<defs>
<clipPath id="clip0_378:72935">
<rect width="21.7778" height="21.7778" fill="white" transform="translate(13.6111 13.6111)"/>
</clipPath>
</defs>
</svg>
